G04*
G04 #@! TF.GenerationSoftware,Altium Limited,Altium Designer,21.3.2 (30)*
G04*
G04 Layer_Color=65535*
%FSLAX44Y44*%
%MOMM*%
G71*
G04*
G04 #@! TF.SameCoordinates,D797C244-DDCF-47B0-A2DA-908DA98AE24E*
G04*
G04*
G04 #@! TF.FilePolarity,Positive*
G04*
G01*
G75*
%ADD10C,0.2000*%
%ADD11C,0.1524*%
%ADD12C,0.1000*%
D10*
X1206279Y14830D02*
X1196779D01*
X1206279D02*
Y21830D01*
X1196779Y14830D02*
Y173330D01*
X1210779Y21830D02*
X1206279D01*
X1235779D02*
X1229779D01*
X1235779D02*
Y41830D01*
X1235779Y146330D02*
Y166330D01*
X1210779D02*
X1206279D01*
X1235779D02*
X1229779D01*
X1206279Y173330D02*
X1196779D01*
X1206279Y166330D02*
Y173330D01*
X1290232Y174527D02*
X1264832D01*
X1290232Y22127D02*
X1264832D01*
X1290232D02*
Y174527D01*
X1264832Y22127D02*
Y174527D01*
D11*
X1239279Y38080D02*
Y41466D01*
Y39773D01*
X1249436D01*
X1247743Y38080D01*
X1239279Y153851D02*
Y147080D01*
X1246050Y153851D01*
X1247743D01*
X1249436Y152158D01*
Y148773D01*
X1247743Y147080D01*
Y157237D02*
X1249436Y158930D01*
Y162315D01*
X1247743Y164008D01*
X1240972D01*
X1239279Y162315D01*
Y158930D01*
X1240972Y157237D01*
X1247743D01*
D12*
X1259032Y162251D02*
Y167249D01*
X1256533D01*
X1255700Y166416D01*
Y164750D01*
X1256533Y163917D01*
X1259032D01*
X1254034Y162251D02*
X1252368D01*
X1253201D01*
Y167249D01*
X1254034Y166416D01*
X1256200Y152249D02*
X1257866D01*
X1257033D01*
Y148084D01*
X1257866Y147251D01*
X1258699D01*
X1259532Y148084D01*
X1254534Y147251D02*
X1252868D01*
X1253701D01*
Y152249D01*
X1254534Y151416D01*
M02*
